<?xml version="1.0" encoding="UTF-8"?>
<svg width="768" height="209" viewBox="0 0 768 209" xmlns="http://www.w3.org/2000/svg">
  <rect x="1" y="1" width="766" height="207" rx="20" fill="white" stroke="black" stroke-width="2"/>
  <path d="M28.25 9.74 L734 9.74 L734 199.74 L28.25 199.74 L28.25 9.74Z" fill="#333132"/>
  <path d="M57.89 40.86 L247.89 40.86 L247.89 114.86 L57.89 114.86 L57.89 40.86Z" fill="#211F20"/>
  <path d="M465.72 104.90 L515.72 104.90 L515.72 168.90 L465.72 168.90 L465.72 104.90Z" fill="#E03338"/>
  <path d="M560.06 86.43 L604.06 86.43 L604.06 168.43 L560.06 168.43 L560.06 86.43Z" fill="#D1353A"/>
  <path d="M626 105 L670 105 L670 169 L626 169 L626 105Z" fill="#E83338"/>
  <path d="M144 97 L180 97 L180 171 L144 171 L144 97Z" fill="#222122"/>
  <path d="M289.99 104.21 L327.99 104.21 L327.99 168.21 L289.99 168.21 L289.99 104.21Z" fill="#DA3439"/>
  <path d="M447.75 108.68 L527.75 108.68 L527.75 168.68 L447.75 168.68 L447.75 108.68Z" fill="#32191B"/>
</svg>